# Blender v2.81 (sub 16) OBJ File: 'rock.blend'
# www.blender.org
mtllib rock.mtl
o Cube
v 0.756179 1.756179 -0.756179
v 0.756179 0.243821 -0.756179
v 0.756179 1.756179 0.756179
v 0.756179 0.243821 0.756179
v -0.756179 1.756179 -0.756179
v -0.756179 0.243821 -0.756179
v -0.756179 1.756179 0.756179
v -0.756179 0.243821 0.756179
v -0.899142 0.100858 -0.299714
v -0.899142 0.100858 0.299714
v 0.899142 1.899142 -0.299714
v 0.899142 1.899142 0.299714
v -0.899142 1.899142 0.299714
v -0.899142 1.899142 -0.299714
v 0.899142 0.100858 0.299714
v 0.899142 0.100858 -0.299714
v 0.299714 0.100858 -0.899142
v -0.299714 0.100858 -0.899142
v 0.299714 1.899142 0.899142
v -0.299714 1.899142 0.899142
v -0.299714 0.100858 0.899142
v 0.299714 0.100858 0.899142
v -0.299714 1.899142 -0.899142
v 0.299714 1.899142 -0.899142
v 0.333333 0.000000 -0.333333
v -0.333333 0.000000 -0.333333
v 0.333333 0.000000 0.333333
v -0.333333 0.000000 0.333333
v -0.333333 2.000000 -0.333333
v 0.333333 2.000000 -0.333333
v -0.333333 2.000000 0.333333
v 0.333333 2.000000 0.333333
v 0.899142 1.299714 -0.899142
v 0.899142 0.700286 -0.899142
v -0.899142 0.700286 0.899142
v -0.899142 1.299714 0.899142
v 0.899142 1.299714 0.899142
v 0.899142 0.700286 0.899142
v -0.899142 1.299714 -0.899142
v -0.899142 0.700286 -0.899142
v 1.000000 1.333333 -0.333333
v 1.000000 0.666667 -0.333333
v 1.000000 1.333333 0.333333
v 1.000000 0.666667 0.333333
v -1.000000 1.333333 0.333333
v -1.000000 0.666667 0.333333
v -1.000000 1.333333 -0.333333
v -1.000000 0.666667 -0.333333
v -0.333333 1.333333 -1.000000
v -0.333333 0.666667 -1.000000
v 0.333333 1.333333 -1.000000
v 0.333333 0.666667 -1.000000
v 0.333333 1.333333 1.000000
v 0.333333 0.666667 1.000000
v -0.333333 1.333333 1.000000
v -0.333333 0.666667 1.000000
vt 0.681259 0.319579
vt 0.930432 0.070971
vt 0.994496 0.336796
vt 0.318149 0.680880
vt 0.068977 0.929488
vt 0.004912 0.663664
vt 0.318393 0.318715
vt 0.069220 0.070107
vt 0.334898 0.005440
vt 0.681216 0.680882
vt 0.930388 0.929490
vt 0.664710 0.994157
vt 0.318227 0.318713
vt 0.069054 0.070105
vt 0.334733 0.005439
vt 0.681259 0.318714
vt 0.930432 0.070105
vt 0.994496 0.335930
vt 0.069802 0.930692
vt 0.319022 0.680907
vt 0.336405 0.994900
vt 0.004990 0.664236
vt 0.929640 0.068903
vt 0.680421 0.318689
vt 0.663038 0.004696
vt 0.994452 0.335359
vt 0.069968 0.930694
vt 0.319188 0.680908
vt 0.336571 0.994901
vt 0.005156 0.664238
vt 0.069846 0.069767
vt 0.319065 0.319553
vt 0.005033 0.336223
vt 0.336448 0.005560
vt 0.318270 0.681746
vt 0.663081 0.995765
vt 0.334776 0.995021
vt 0.680464 0.681772
vt 0.069097 0.930354
vt 0.005033 0.664530
vt 0.318227 0.318716
vt 0.004990 0.664238
vt 0.004990 0.335932
vt 0.319022 0.680909
vt 0.069054 0.070107
vt 0.334732 0.005441
vt 0.069846 0.068902
vt 0.319065 0.318687
vt 0.005033 0.335357
vt 0.336448 0.004694
vt 0.069802 0.930694
vt 0.336405 0.994902
vt 0.929563 0.930692
vt 0.680343 0.680907
vt 0.994375 0.664236
vt 0.662960 0.994900
vt 0.929683 0.931557
vt 0.994496 0.665102
vt 0.681138 0.318713
vt 0.336327 0.004694
vt 0.664632 0.005438
vt 0.318944 0.318687
vt 0.930311 0.070105
vt 0.994375 0.335930
vt 0.318270 0.680880
vt 0.663081 0.994900
vt 0.334776 0.994155
vt 0.680464 0.680907
vt 0.069097 0.929488
vt 0.005033 0.663664
vt 0.681382 0.680882
vt 0.994619 0.335359
vt 0.994618 0.663665
vt 0.680587 0.318688
vt 0.930554 0.929490
vt 0.664876 0.994157
vt 0.681216 0.680880
vt 0.994452 0.335357
vt 0.994452 0.663664
vt 0.680421 0.318687
vt 0.930389 0.929488
vt 0.664710 0.994155
vt 0.929683 0.930692
vt 0.994496 0.664236
vt 0.929640 0.068902
vt 0.663038 0.004694
vt 0.929806 0.068903
vt 0.663204 0.004696
vt 0.069725 0.068902
vt 0.004912 0.335357
vt 0.664753 0.006304
vt 0.334655 0.994155
vt 0.005156 0.335931
vt 0.994452 0.663665
vt 0.004990 0.335930
vt 0.664754 0.005439
vn -0.3459 0.9199 0.1845
vn -0.1845 0.3459 0.9199
vn -0.9199 0.3459 -0.1845
vn 0.3459 -0.9199 0.1845
vn 0.9199 0.3459 0.1845
vn 0.1845 0.3459 -0.9199
vn 0.9199 0.3459 -0.1845
vn 0.9845 0.1755 0.0000
vn 0.3459 -0.9199 -0.1845
vn 0.1755 -0.9845 0.0000
vn -0.9199 0.3459 0.1845
vn -0.9845 0.1755 0.0000
vn -0.3459 0.9199 -0.1845
vn -0.1755 0.9845 0.0000
vn 0.1755 0.9845 0.0000
vn 0.0000 1.0000 0.0000
vn 0.1845 0.9199 -0.3459
vn 0.0000 0.9845 -0.1755
vn -0.1755 -0.9845 0.0000
vn 0.0000 -1.0000 0.0000
vn -0.1845 -0.9199 -0.3459
vn 0.0000 -0.9845 -0.1755
vn -0.1845 0.3459 -0.9199
vn 0.0000 0.1755 -0.9845
vn -0.1845 -0.9199 0.3459
vn 0.0000 -0.9845 0.1755
vn 0.1845 0.3459 0.9199
vn 0.0000 0.1755 0.9845
vn 0.1845 0.9199 0.3459
vn 0.0000 0.9845 0.1755
vn 0.0000 -0.1755 0.9845
vn 0.0000 0.0000 1.0000
vn 0.3459 -0.1845 0.9199
vn 0.1755 0.0000 0.9845
vn 0.0000 -0.1755 -0.9845
vn 0.0000 0.0000 -1.0000
vn -0.3459 -0.1845 -0.9199
vn -0.1755 0.0000 -0.9845
vn -0.9845 -0.1755 0.0000
vn -1.0000 0.0000 0.0000
vn -0.9199 -0.1845 0.3459
vn -0.9845 0.0000 0.1755
vn 0.9845 -0.1755 0.0000
vn 1.0000 0.0000 0.0000
vn 0.9199 -0.1845 -0.3459
vn 0.9845 0.0000 -0.1755
vn 0.3459 -0.1845 -0.9199
vn 0.1755 0.0000 -0.9845
vn 0.9199 -0.1845 0.3459
vn 0.9845 0.0000 0.1755
vn -0.9199 -0.1845 -0.3459
vn -0.9845 0.0000 -0.1755
vn -0.3459 -0.1845 0.9199
vn -0.1755 0.0000 0.9845
vn -0.1845 0.9199 0.3459
vn -0.3459 0.1845 0.9199
vn -0.9199 0.1845 -0.3459
vn 0.1845 -0.9199 0.3459
vn 0.9199 0.1845 0.3459
vn 0.3459 0.1845 -0.9199
vn 0.9199 0.1845 -0.3459
vn 0.1845 -0.9199 -0.3459
vn -0.9199 0.1845 0.3459
vn -0.1845 0.9199 -0.3459
vn 0.3459 0.9199 -0.1845
vn -0.3459 -0.9199 -0.1845
vn -0.3459 0.1845 -0.9199
vn -0.3459 -0.9199 0.1845
vn 0.3459 0.1845 0.9199
vn 0.3459 0.9199 0.1845
vn 0.1845 -0.3459 0.9199
vn -0.1845 -0.3459 -0.9199
vn -0.9199 -0.3459 0.1845
vn 0.9199 -0.3459 -0.1845
vn 0.1845 -0.3459 -0.9199
vn 0.9199 -0.3459 0.1845
vn -0.9199 -0.3459 -0.1845
vn -0.1845 -0.3459 0.9199
usemtl Material
s off
f 31/1/1 7/2/1 20/3/1
f 55/4/2 7/5/2 36/6/2
f 47/7/3 5/8/3 39/9/3
f 27/10/4 4/11/4 22/12/4
f 43/13/5 3/14/5 37/15/5
f 51/16/6 1/17/6 33/18/6
f 1/19/7 41/20/7 33/21/7
f 11/22/8 43/13/8 41/20/8
f 2/23/9 25/24/9 17/25/9
f 16/26/10 27/10/10 25/24/10
f 7/27/11 45/28/11 36/29/11
f 13/30/12 47/7/12 45/28/12
f 5/31/13 29/32/13 23/33/13
f 14/34/14 31/1/14 29/32/14
f 30/35/15 12/36/15 11/37/15
f 29/32/16 32/38/16 30/35/16
f 1/39/17 30/35/17 11/37/17
f 23/33/18 30/35/18 24/40/18
f 26/41/19 10/42/19 9/43/19
f 25/24/20 28/44/20 26/41/20
f 6/45/21 26/41/21 9/43/21
f 17/25/22 26/41/22 18/46/22
f 5/47/23 49/48/23 39/49/23
f 23/50/24 51/16/24 49/48/24
f 28/44/25 8/51/25 10/42/25
f 28/44/26 22/12/26 21/52/26
f 3/53/27 53/54/27 37/55/27
f 19/56/28 55/4/28 53/54/28
f 32/38/29 3/57/29 12/36/29
f 32/38/30 20/3/30 19/58/30
f 54/59/31 21/60/31 22/61/31
f 53/54/32 56/62/32 54/59/32
f 4/63/33 54/59/33 22/61/33
f 37/55/34 54/59/34 38/64/34
f 50/65/35 17/66/35 18/67/35
f 49/48/36 52/68/36 50/65/36
f 6/69/37 50/65/37 18/67/37
f 39/49/38 50/65/38 40/70/38
f 46/71/39 9/72/39 10/73/39
f 45/28/40 48/74/40 46/71/40
f 8/75/41 46/71/41 10/73/41
f 36/29/42 46/71/42 35/76/42
f 42/77/43 15/78/43 16/79/43
f 41/20/44 44/80/44 42/77/44
f 2/81/45 42/77/45 16/79/45
f 33/21/46 42/77/46 34/82/46
f 52/68/47 2/83/47 17/66/47
f 51/16/48 34/84/48 52/68/48
f 44/80/49 4/85/49 15/78/49
f 43/13/50 38/86/50 44/80/50
f 48/74/51 6/87/51 9/72/51
f 47/7/52 40/88/52 48/74/52
f 56/62/53 8/89/53 21/60/53
f 55/4/54 35/90/54 56/62/54
f 31/1/55 13/91/55 7/2/55
f 55/4/56 20/92/56 7/5/56
f 47/7/57 14/93/57 5/8/57
f 27/10/58 15/94/58 4/11/58
f 43/13/59 12/95/59 3/14/59
f 51/16/60 24/96/60 1/17/60
f 1/19/61 11/22/61 41/20/61
f 11/22/8 12/95/8 43/13/8
f 2/23/62 16/26/62 25/24/62
f 16/26/10 15/94/10 27/10/10
f 7/27/63 13/30/63 45/28/63
f 13/30/12 14/93/12 47/7/12
f 5/31/64 14/34/64 29/32/64
f 14/34/14 13/91/14 31/1/14
f 30/35/15 32/38/15 12/36/15
f 29/32/16 31/1/16 32/38/16
f 1/39/65 24/40/65 30/35/65
f 23/33/18 29/32/18 30/35/18
f 26/41/19 28/44/19 10/42/19
f 25/24/20 27/10/20 28/44/20
f 6/45/66 18/46/66 26/41/66
f 17/25/22 25/24/22 26/41/22
f 5/47/67 23/50/67 49/48/67
f 23/50/24 24/96/24 51/16/24
f 28/44/68 21/52/68 8/51/68
f 28/44/26 27/10/26 22/12/26
f 3/53/69 19/56/69 53/54/69
f 19/56/28 20/92/28 55/4/28
f 32/38/70 19/58/70 3/57/70
f 32/38/30 31/1/30 20/3/30
f 54/59/31 56/62/31 21/60/31
f 53/54/32 55/4/32 56/62/32
f 4/63/71 38/64/71 54/59/71
f 37/55/34 53/54/34 54/59/34
f 50/65/35 52/68/35 17/66/35
f 49/48/36 51/16/36 52/68/36
f 6/69/72 40/70/72 50/65/72
f 39/49/38 49/48/38 50/65/38
f 46/71/39 48/74/39 9/72/39
f 45/28/40 47/7/40 48/74/40
f 8/75/73 35/76/73 46/71/73
f 36/29/42 45/28/42 46/71/42
f 42/77/43 44/80/43 15/78/43
f 41/20/44 43/13/44 44/80/44
f 2/81/74 34/82/74 42/77/74
f 33/21/46 41/20/46 42/77/46
f 52/68/75 34/84/75 2/83/75
f 51/16/48 33/18/48 34/84/48
f 44/80/76 38/86/76 4/85/76
f 43/13/50 37/15/50 38/86/50
f 48/74/77 40/88/77 6/87/77
f 47/7/52 39/9/52 40/88/52
f 56/62/78 35/90/78 8/89/78
f 55/4/54 36/6/54 35/90/54
